<svg width="212" height="46" viewBox="0 0 212 46" fill="none" xmlns="http://www.w3.org/2000/svg">
<path d="M211.491 20.8071V17.0894H206.886V11.3187L206.719 11.3742L202.391 12.7059H202.28V17.0894H195.455V14.648C195.455 13.5382 195.733 12.6504 196.232 12.0955C196.732 11.5406 197.453 11.2077 198.341 11.2077C199.007 11.2077 199.672 11.3742 200.338 11.6516L200.505 11.7071V7.82298L200.449 7.7675C199.839 7.54555 198.951 7.43457 197.897 7.43457C196.565 7.43457 195.344 7.71201 194.29 8.32237C193.236 8.87725 192.404 9.70956 191.793 10.7638C191.183 11.8181 190.905 13.0388 190.905 14.3705V17.0339H187.687V20.7516H190.905V36.3991H195.511V20.7516H202.336V30.7393C202.336 34.8454 204.278 36.8985 208.051 36.8985C208.661 36.8985 209.327 36.843 209.993 36.6765C210.659 36.51 211.158 36.3991 211.436 36.2326L211.491 36.1771V32.4595L211.325 32.5704C211.047 32.7369 210.77 32.8479 210.382 32.9588C209.993 33.0698 209.716 33.1253 209.494 33.1253C208.606 33.1253 207.94 32.9034 207.552 32.404C207.163 31.9046 206.941 31.0723 206.941 29.907V20.8071H211.491ZM177.422 33.1253C175.757 33.1253 174.426 32.5704 173.482 31.4607C172.539 30.3509 172.095 28.7973 172.095 26.7997C172.095 24.7467 172.595 23.1375 173.482 22.0278C174.426 20.918 175.702 20.3632 177.366 20.3632C178.976 20.3632 180.252 20.918 181.14 21.9723C182.027 23.0266 182.527 24.6357 182.527 26.6888C182.527 28.7973 182.083 30.4064 181.251 31.4607C180.363 32.6259 179.087 33.1253 177.422 33.1253ZM177.588 16.6455C174.426 16.6455 171.873 17.5888 170.042 19.4199C168.211 21.251 167.323 23.8034 167.323 27.0217C167.323 30.0735 168.211 32.4594 169.987 34.235C171.762 36.0106 174.148 36.8985 177.089 36.8985C180.196 36.8985 182.638 35.9552 184.469 34.0686C186.3 32.182 187.188 29.6851 187.188 26.5778C187.188 23.526 186.355 21.029 184.635 19.3089C182.971 17.5333 180.64 16.6455 177.588 16.6455ZM159.943 16.6455C157.779 16.6455 156.004 17.2004 154.617 18.3101C153.229 19.4199 152.564 20.8626 152.564 22.5827C152.564 23.4705 152.73 24.3028 153.007 24.9686C153.285 25.6345 153.784 26.2448 154.395 26.7442C155.005 27.2436 155.948 27.7985 157.169 28.2979C158.223 28.7418 159 29.0747 159.499 29.4076C159.999 29.6851 160.332 29.9625 160.498 30.24C160.665 30.5174 160.776 30.9058 160.776 31.3497C160.776 32.6259 159.777 33.2918 157.779 33.2918C157.058 33.2918 156.17 33.1253 155.282 32.8479C154.339 32.5149 153.507 32.1265 152.73 31.5162L152.564 31.4052V35.8442L152.619 35.8997C153.285 36.1771 154.117 36.4546 155.06 36.6765C156.004 36.8985 156.892 36.954 157.668 36.954C159.999 36.954 161.941 36.3991 163.273 35.2893C164.66 34.1796 165.381 32.6814 165.381 30.9058C165.381 29.6296 164.993 28.4643 164.271 27.5765C163.55 26.6887 162.218 25.8564 160.443 25.1351C159 24.5802 158.112 24.0808 157.724 23.6924C157.335 23.3595 157.169 22.8601 157.169 22.1943C157.169 21.6394 157.391 21.1955 157.89 20.8071C158.39 20.4187 159 20.2522 159.832 20.2522C160.609 20.2522 161.386 20.3632 162.163 20.5851C162.94 20.8071 163.606 21.14 164.216 21.5284L164.382 21.6394V17.4223L164.327 17.3668C163.772 17.1449 163.106 16.9229 162.274 16.812C161.386 16.7565 160.609 16.6455 159.943 16.6455ZM140.523 33.1253C138.858 33.1253 137.526 32.5704 136.583 31.4607C135.64 30.3509 135.196 28.7973 135.196 26.7997C135.196 24.7467 135.695 23.1375 136.583 22.0278C137.526 20.918 138.803 20.3632 140.467 20.3632C142.076 20.3632 143.353 20.918 144.24 21.9723C145.128 23.0266 145.628 24.6357 145.628 26.6888C145.628 28.7973 145.184 30.4064 144.351 31.4607C143.519 32.6259 142.243 33.1253 140.523 33.1253ZM140.745 16.6455C137.582 16.6455 135.029 17.5888 133.198 19.4199C131.367 21.251 130.479 23.8034 130.479 27.0217C130.479 30.0735 131.367 32.4594 133.143 34.235C134.918 36.0106 137.304 36.8985 140.245 36.8985C143.353 36.8985 145.794 35.9552 147.625 34.0686C149.456 32.182 150.344 29.6851 150.344 26.5778C150.344 23.526 149.512 21.029 147.792 19.3089C146.127 17.5333 143.741 16.6455 140.745 16.6455ZM123.488 20.4741V17.1449H118.938V36.4545H123.488V26.5778C123.488 24.9131 123.876 23.526 124.598 22.4717C125.319 21.4174 126.318 20.918 127.539 20.918C127.927 20.918 128.426 20.9735 128.926 21.14C129.425 21.251 129.758 21.4174 129.98 21.5839L130.147 21.6949V17.0894L130.091 17.0339C129.647 16.8675 129.092 16.7565 128.315 16.7565C127.15 16.7565 126.151 17.1449 125.264 17.8662C124.542 18.5321 123.987 19.3644 123.488 20.4741ZM110.837 16.6455C108.728 16.6455 106.897 17.0894 105.288 17.9772C103.679 18.865 102.458 20.1412 101.626 21.7504C100.794 23.3595 100.35 25.2461 100.35 27.2991C100.35 29.1302 100.738 30.7948 101.57 32.293C102.403 33.7911 103.513 34.9564 104.955 35.7332C106.398 36.51 108.063 36.954 109.949 36.954C112.113 36.954 113.944 36.51 115.442 35.6777L115.498 35.6222V31.4607L115.331 31.6271C114.666 32.1265 113.889 32.5149 113.112 32.7924C112.335 33.0698 111.558 33.2363 110.948 33.2363C109.172 33.2363 107.73 32.6814 106.675 31.5717C105.621 30.4619 105.122 28.9083 105.122 26.9662C105.122 25.0241 105.677 23.415 106.786 22.2497C107.896 21.0845 109.283 20.4741 111.059 20.4741C112.557 20.4741 114 20.9735 115.387 21.9723L115.553 22.0833V17.6998L115.498 17.6443C114.998 17.3668 114.277 17.0894 113.389 16.9229C112.502 16.7565 111.614 16.6455 110.837 16.6455ZM97.2424 17.1449H92.6925V36.4545H97.2424V17.1449ZM95.0229 8.87725C94.3016 8.87725 93.6357 9.15468 93.0809 9.65407C92.526 10.1535 92.2486 10.8193 92.2486 11.5406C92.2486 12.262 92.526 12.9278 93.0254 13.4272C93.5803 13.9266 94.1906 14.1486 94.9674 14.1486C95.7443 14.1486 96.4101 13.9266 96.9095 13.4272C97.4644 12.9278 97.7418 12.3175 97.7418 11.5406C97.7418 10.8193 97.4644 10.2089 96.965 9.65407C96.4656 9.15468 95.7998 8.87725 95.0229 8.87725ZM83.7035 15.7022V36.4545H88.3644V9.48761H81.9279L73.7712 29.5186L65.8365 9.48761H59.178V36.4545H63.5615V15.7022H63.728L72.1066 36.4545H75.3803L83.5925 15.7022H83.7035Z" fill="#706D6E"/>
<path d="M22.0022 21.8625H0.639465V0.499817H22.0022V21.8625Z" fill="#F1511B"/>
<path d="M45.6388 21.8625H24.2761V0.499817H45.6388V21.8625Z" fill="#80CC28"/>
<path d="M22.0022 45.5002H0.639465V24.082H22.0022V45.5002Z" fill="#00ADEF"/>
<path d="M45.6388 45.5002H24.2761V24.082H45.6388V45.5002Z" fill="#FBBC09"/>
</svg>
